<?xml version="1.0" encoding="utf-8"?>
<!-- Generator: Adobe Adobe Illustrator 24.2.0, SVG Export Plug-In . SVG Version: 6.00 Build 0)  -->
<svg version="1.1" xmlns="http://www.w3.org/2000/svg" xmlns:xlink="http://www.w3.org/1999/xlink" x="0px" y="0px" width="1300px"
	 height="1300px" viewBox="0 0 1300 1300" style="enable-background:new 0 0 1300 1300;" xml:space="preserve">
<style type="text/css">
	.st0{fill:#015AAB;}
	.st1{fill:url(#SVGID_1_);}
	.st2{fill:url(#SVGID_2_);}
	.st3{fill:url(#SVGID_3_);}
</style>
<g id="Layer_2">
	<path class="st0" d="M821.83,412.22c0,0-8.48,36.09,13.67,65.08c22.15,28.99,74.94,50.9,149.48,30.53
		c37.72-10.31,99.68-60.11,99.68-138.2c0-90.65-59.94-192.92-177.37-249.69c-108.87-52.64-260.92-74.81-386.22-47.8
		C175.12,146.74,76.4,428.34,59.93,603.45c-35.19,374.07,309.42,681.16,660.93,630.45c66.22-9.55,197.37-26.55,333.17-162.35
		c36.19-36.19,75.59-76.36,102.46-125.53c75.69-138.5,95.28-282.2,63.24-401.9c-0.55-2.07-7.97-15.01-24.48-15.14
		c-15.21,0-23.91,15.91-23.91,16.57c0,5.25-8.52,77.59-44.97,171.36c-36.28,93.32-214.9,258.82-416.93,214.97
		C555.8,898.54,456.74,797.82,456.74,671.26c0-88.1,12.23-166.07,123.68-238.26C704.3,352.75,821.83,412.22,821.83,412.22z"/>
</g>
<g id="Layer_3">
	<linearGradient id="SVGID_1_" gradientUnits="userSpaceOnUse" x1="142.7558" y1="960.8034" x2="822.3594" y2="122.8568">
		<stop  offset="0" style="stop-color:#0979D6"/>
		<stop  offset="0.1783" style="stop-color:#399DE1"/>
		<stop  offset="0.3596" style="stop-color:#63BCEB"/>
		<stop  offset="0.5367" style="stop-color:#84D4F3"/>
		<stop  offset="0.706" style="stop-color:#9BE5F9"/>
		<stop  offset="0.8641" style="stop-color:#A9EFFC"/>
		<stop  offset="1" style="stop-color:#AEF3FD"/>
	</linearGradient>
	<path class="st1" d="M871.89,443.85c0,0,62.06,45.56,116.23,10.89c93.6-59.91,38.64-173.43,2.71-212.59
		c-52.36-57.07-111.62-88.06-191.06-111.12c-111.36-32.33-222.89-21.72-315.08,3.51c-150.25,41.12-307.86,190.24-352.98,350.27
		c-37.58,133.28-25.78,266,2.29,344.06c54.45,151.46,144.02,211.47,144.02,211.47s-94.48-121.86-100.5-278.77
		c-8.04-209.52,89.12-347.12,150.75-392.24c142.47-104.32,253.91-111.86,340.12-94.72c143.4,28.52,189.74,77.99,204.44,123.4
		C881.96,426.16,871.89,443.85,871.89,443.85z"/>
</g>
<g id="Layer_4">
	<linearGradient id="SVGID_2_" gradientUnits="userSpaceOnUse" x1="366.0003" y1="1082.4912" x2="869.4517" y2="461.7391">
		<stop  offset="0" style="stop-color:#0979D6"/>
		<stop  offset="0.1192" style="stop-color:#107ED8"/>
		<stop  offset="0.2888" style="stop-color:#228CDC"/>
		<stop  offset="0.4885" style="stop-color:#41A2E3"/>
		<stop  offset="0.7113" style="stop-color:#6CC2ED"/>
		<stop  offset="0.9504" style="stop-color:#A2EAFA"/>
		<stop  offset="1" style="stop-color:#AEF3FD"/>
	</linearGradient>
	<path class="st2" d="M751.02,348.57c0,0-183.38-87.51-351.75,14.9c-115.97,70.54-213.01,233.98-166.09,494.54
		c36.62,203.38,200.74,291.31,316.59,321.77c193.11,50.78,358.81-58.12,358.81-58.12s-183.88,7.2-320.1-74.44
		c-103.28-61.9-166.41-204.63-174.63-269.04C354.32,311.98,751.02,348.57,751.02,348.57z"/>
</g>
<g id="Layer_5">
	<linearGradient id="SVGID_3_" gradientUnits="userSpaceOnUse" x1="873.8134" y1="506.9239" x2="796.8375" y2="915.3674">
		<stop  offset="0" style="stop-color:#AEF3FD"/>
		<stop  offset="0.1238" style="stop-color:#A8EEFC"/>
		<stop  offset="0.292" style="stop-color:#96E2F7"/>
		<stop  offset="0.4857" style="stop-color:#7ACCF1"/>
		<stop  offset="0.6985" style="stop-color:#52AFE7"/>
		<stop  offset="0.9243" style="stop-color:#208ADB"/>
		<stop  offset="1" style="stop-color:#0D7CD7"/>
	</linearGradient>
	<path class="st3" d="M465.33,820.31c0,0,86.46,310.48,427.23,268.08c259.32-32.27,291.02-378.82,291.02-378.82
		s-89.28,211.56-298.89,260.65C591.17,1038.95,465.33,820.31,465.33,820.31z"/>
</g>
<g id="Layer_6">
	<ellipse class="st0" cx="933.83" cy="653.95" rx="45" ry="55.61"/>
	<ellipse class="st0" cx="600.98" cy="653.95" rx="45" ry="55.61"/>
</g>
<g id="Layer_7">
	<path class="st0" d="M702.37,720.69c19.03-15.34,33.63,23,68.23,23c30.74,0,43.84-33.03,62.23-24c18.06,8.87-10.76,55-61.23,55
		C714.8,774.69,685.64,734.18,702.37,720.69z"/>
</g>
</svg>
